<?xml version="1.0" encoding="utf-8"?>
<!-- Generator: Adobe Illustrator 15.1.0, SVG Export Plug-In . SVG Version: 6.00 Build 0)  -->
<!DOCTYPE svg PUBLIC "-//W3C//DTD SVG 1.1//EN" "http://www.w3.org/Graphics/SVG/1.1/DTD/svg11.dtd">
<svg version="1.1" id="Layer_1" xmlns="http://www.w3.org/2000/svg" xmlns:xlink="http://www.w3.org/1999/xlink" x="0px" y="0px"
	 width="80px" height="20px" viewBox="0 0 80 20" enable-background="new 0 0 80 20" xml:space="preserve">
<g>
	<rect x="1.5" y="1.5" fill="#F7F7F7" width="17" height="17"/>
	<path fill="#CBC8C9" d="M18,2v16H2V2H18 M19,1H1v18h18V1L19,1z"/>
</g>
<g>
	<rect x="21.5" y="1.5" fill="#F7F7F7" width="17" height="17"/>
	<path fill="#CBC8C9" d="M38,2v16H22V2H38 M39,1H21v18h18V1L39,1z"/>
</g>
<g>
	<g>
		<path fill="#9C9899" d="M35.881,5.668c0.34,0.34,0.301,0.938-0.088,1.326l-7.252,7.251c-0.389,0.389-0.986,0.429-1.326,0.089
			c-0.34-0.341-0.301-0.938,0.088-1.326l7.252-7.252C34.943,5.367,35.541,5.328,35.881,5.668z"/>
	</g>
	<g>
		<path fill="#9C9899" d="M28.453,14.334c-0.34,0.34-0.938,0.3-1.326-0.089l-2.92-2.918c-0.389-0.389-0.428-0.986-0.088-1.326
			s0.938-0.301,1.326,0.088l2.92,2.919C28.754,13.396,28.793,13.993,28.453,14.334z"/>
	</g>
</g>
<g>
	<path fill="#F7F7F7" d="M50,17.5c-4.136,0-7.5-3.364-7.5-7.5s3.364-7.5,7.5-7.5s7.5,3.364,7.5,7.5S54.136,17.5,50,17.5z"/>
	<path fill="#CBC8C9" d="M50,3c3.859,0,7,3.14,7,7c0,3.859-3.141,7-7,7s-7-3.141-7-7C43,6.14,46.141,3,50,3 M50,2
		c-4.418,0-8,3.582-8,8s3.582,8,8,8s8-3.582,8-8S54.418,2,50,2L50,2z"/>
</g>
<g>
	<path fill="#F7F7F7" d="M70,17.5c-4.136,0-7.5-3.364-7.5-7.5s3.364-7.5,7.5-7.5s7.5,3.364,7.5,7.5S74.136,17.5,70,17.5z"/>
	<path fill="#CBC8C9" d="M70,3c3.859,0,7,3.14,7,7c0,3.859-3.141,7-7,7s-7-3.141-7-7C63,6.14,66.141,3,70,3 M70,2
		c-4.418,0-8,3.582-8,8s3.582,8,8,8s8-3.582,8-8S74.418,2,70,2L70,2z"/>
</g>
<g>
	<circle fill="#9C9899" cx="70" cy="10" r="4"/>
</g>
</svg>
