<?xml version="1.0" encoding="utf-8"?>
<!-- Generator: Adobe Illustrator 15.1.0, SVG Export Plug-In . SVG Version: 6.00 Build 0)  -->
<!DOCTYPE svg PUBLIC "-//W3C//DTD SVG 1.1//EN" "http://www.w3.org/Graphics/SVG/1.1/DTD/svg11.dtd">
<svg version="1.1" id="Layer_1" xmlns="http://www.w3.org/2000/svg" xmlns:xlink="http://www.w3.org/1999/xlink" x="0px" y="0px"
	 width="30px" height="30px" viewBox="0 0 30 30" enable-background="new 0 0 30 30" xml:space="preserve">
<path fill="#44AC3B" d="M24.547,15.439c-0.208,1.071-0.739,2.181-1.586,3.347c-1.822,2.23-4.029,3.705-6.643,4.426h-0.046
	c-2.693,0.719-5.388,0.658-8.082-0.189C5.838,22.13,3.934,20.71,2.5,18.751c1.427,1.123,2.746,1.686,3.976,1.691l0.031-0.016
	c2.015,0.135,3.738-0.5,5.17-1.902c0.007-0.006,0.012-0.014,0.017-0.02l-0.041-0.059c-0.826,0.039-1.389-0.211-1.703-0.746
	c-0.086-0.359,0-0.674,0.268-0.939c0.144-0.164,0.375-0.322,0.665-0.461c-1.461,0.031-2.466-0.471-3.03-1.534
	c0.428-0.462,0.99-0.695,1.672-0.652l0.01-0.02c-1.731-0.469-2.647-1.31-2.731-2.535c0.447-0.129,0.905-0.2,1.382-0.195v-0.024
	c-1.348-0.761-2.023-1.815-2.018-3.13c1.238,0.378,2.46,0.871,3.667,1.465c1.105,0.467,2.067,0.951,2.884,1.451
	c0.695,0.395,1.271,0.883,1.756,1.455l0.021-0.025l0.124-0.095c0.342-1.269,0.898-2.516,1.701-3.755l0.01-0.04
	c0.317-0.45,0.725-0.946,1.225-1.489c0.246-0.236,0.527-0.468,0.848-0.675c0.062,0.037-0.031,0.253-0.283,0.656
	c0.664-0.56,1.311-0.847,1.901-0.865c0.136,0.13-0.101,0.388-0.705,0.749c0.48-0.176,1.011-0.292,1.587-0.361
	c0.246,0.028,0.334,0.155,0.261,0.385c-0.2,0.279-0.878,0.535-2.021,0.785c0,0-0.021,0-0.027,0.006l0.042,0.084
	c1.261-0.047,2.358,0.352,3.3,1.188c0.01,0.02,0.025,0.031,0.044,0.037c1.104,1.066,1.743,2.245,1.922,3.541
	c0.979,0.345,1.97,0.342,2.979-0.031c-0.273,0.732-1.128,1.176-2.565,1.332c-0.008-0.012-0.008-0.012-0.008,0v0.139
	c1.314,0.256,2.203,0.311,2.661,0.153l0.013,0.017C26.887,15.114,25.909,15.486,24.547,15.439z"/>
</svg>
