<?xml version="1.0" encoding="utf-8"?>
<!-- Generator: Adobe Illustrator 15.1.0, SVG Export Plug-In . SVG Version: 6.00 Build 0)  -->
<!DOCTYPE svg PUBLIC "-//W3C//DTD SVG 1.1//EN" "http://www.w3.org/Graphics/SVG/1.1/DTD/svg11.dtd">
<svg version="1.1" id="Layer_1" xmlns="http://www.w3.org/2000/svg" xmlns:xlink="http://www.w3.org/1999/xlink" x="0px" y="0px"
	 width="30px" height="30px" viewBox="0 0 30 30" enable-background="new 0 0 30 30" xml:space="preserve">
<g>
	<path fill="#44AC3B" d="M17.25,5.523h1.254v4.555c0,0-0.016,0.38,0.406,0.38c0.424,0,0.729-0.516,0.729-0.516V5.523h1.234v5.724
		h-1.201v-0.593c0,0-0.762,0.693-1.473,0.693c-0.713,0-0.949-0.509-0.949-0.779C17.25,10.3,17.25,5.523,17.25,5.523z"/>
	<polygon fill="#44AC3B" points="9.091,3.662 10.057,6.575 11.04,3.662 12.395,3.662 10.733,8.046 10.733,11.229 9.377,11.229 
		9.377,8.097 7.604,3.662 	"/>
	<path fill="#44AC3B" d="M14.883,5.523h-0.505h-0.105h-0.507c-1.322,0.239-1.287,1.391-1.287,1.391v2.962
		c0,0-0.035,1.151,1.287,1.387h0.507h0.105h0.505c1.324-0.235,1.291-1.387,1.291-1.387V6.914
		C16.174,6.914,16.207,5.763,14.883,5.523z M14.969,9.933c0,0-0.053,0.525-0.644,0.525c-0.589,0-0.612-0.525-0.612-0.525V6.895
		c0,0,0.023-0.523,0.612-0.523c0.591,0,0.644,0.523,0.644,0.523V9.933z"/>
	<g>
		<path fill="#44AC3B" d="M22.084,17.715c-0.703,0-0.652,0.779-0.652,0.779v0.844h1.303v-0.811
			C22.734,18.527,22.789,17.715,22.084,17.715z"/>
		<path fill="#44AC3B" d="M17.438,17.715c-0.457,0-0.697,0.27-0.697,0.27v4.352c0,0,0.084,0.305,0.592,0.305
			c0.51,0,0.596-0.729,0.596-0.729v-3.471C17.928,18.441,17.895,17.715,17.438,17.715z"/>
		<path fill="#44AC3B" d="M4.2,19.338c0-0.018,0-0.086,0.004-0.197C4.2,19.027,4.2,18.959,4.2,18.945V19.338z"/>
		<path fill="#44AC3B" d="M25.26,13.736c-0.547-1.118-1.559-1.56-2.609-1.626c-1.049-0.068-6.164-0.169-7.279-0.169h-0.74
			c-1.119,0-6.236,0.101-7.281,0.169c-1.05,0.066-2.066,0.508-2.608,1.626c-0.472,0.975-0.534,4.523-0.538,5.404
			c0.004,0.879,0.066,4.428,0.538,5.402c0.542,1.119,1.559,1.559,2.608,1.625c1.045,0.068,6.162,0.17,7.281,0.17h0.74
			c1.115,0,6.23-0.102,7.279-0.17c1.051-0.066,2.062-0.506,2.609-1.625c0.471-0.975,0.533-4.523,0.541-5.402
			C25.793,18.26,25.73,14.711,25.26,13.736z M10.582,15.631H9.059v8.008H7.62v-8.008H6.178v-1.354h4.403V15.631z M14.339,23.639
			h-1.219l-0.017-0.729c0,0-0.66,0.881-1.455,0.881s-0.881-0.727-0.881-0.727v-6.332h1.219v5.314c0,0-0.068,0.561,0.39,0.561
			s0.744-0.51,0.744-0.51v-5.365h1.219V23.639z M18.164,23.791c-1.084,0-1.385-0.779-1.385-0.779v0.627h-1.287v-9.361h1.267v3.047
			c0,0,0.656-0.779,1.305-0.779c0.641,0,1.062,0.561,1.062,1.371c0,0.812,0,4.486,0,4.486S19.25,23.791,18.164,23.791z
			 M23.953,20.389l-2.502,0.018v1.605c0,0,0.014,0.629,0.658,0.629c0.643,0,0.576-0.559,0.576-0.559l0.004-0.83h1.264v1.016
			c0,0-0.219,1.523-1.773,1.523c-1.559,0-1.965-1.338-1.965-1.693c0-0.354,0-3.859,0-3.859s0.047-1.676,1.869-1.676
			c1.82,0,1.869,1.762,1.869,1.762V20.389z"/>
	</g>
</g>
</svg>
